<svg xmlns="http://www.w3.org/2000/svg" xmlns:xlink="http://www.w3.org/1999/xlink" viewBox="0 0 76.28 28.18"><defs><style>.cls-1,.cls-11,.cls-13,.cls-2,.cls-5,.cls-7,.cls-9{fill:none;}.cls-11,.cls-2{stroke:#b28656;}.cls-11,.cls-13,.cls-2,.cls-5,.cls-7,.cls-9{stroke-miterlimit:10;}.cls-2{stroke-width:0.6px;}.cls-3{clip-path:url(#clip-path);}.cls-4{fill:#a3b384;}.cls-13,.cls-5,.cls-7,.cls-9{stroke:#d9da9e;}.cls-5{stroke-width:0.47px;}.cls-6{clip-path:url(#clip-path-2);}.cls-7{stroke-width:0.38px;}.cls-8{clip-path:url(#clip-path-3);}.cls-9{stroke-width:0.3px;}.cls-10{clip-path:url(#clip-path-4);}.cls-11{stroke-width:2.78px;}.cls-12{clip-path:url(#clip-path-5);}.cls-13{stroke-width:0.24px;}.cls-14{fill:#ffbe88;}</style><clipPath id="clip-path" transform="translate(0 0.98)"><path class="cls-1" d="M13.9,20.74c2.46-2.94.19-7.36.19-7.36S9.34,11.9,6.88,14.83,5.16,24,5.16,24,11.43,23.67,13.9,20.74Z"/></clipPath><clipPath id="clip-path-2" transform="translate(0 0.98)"><path class="cls-1" d="M20.54,16.36c-1-2.9-5-3.18-5-3.18s-3,2.64-2,5.54,5.56,5,5.56,5S21.52,19.25,20.54,16.36Z"/></clipPath><clipPath id="clip-path-3" transform="translate(0 0.98)"><path class="cls-1" d="M26.13,6.39C26.9,8.67,30,8.91,30,8.91s2.35-2.07,1.58-4.35S27.25.63,27.25.63,25.37,4.1,26.13,6.39Z"/></clipPath><clipPath id="clip-path-4" transform="translate(0 0.98)"><path class="cls-1" d="M56.62,15.61c-2.15-3.17-7-2.19-7-2.19s-2.7,4.18-.55,7.35,8.36,4.12,8.36,4.12S58.78,18.78,56.62,15.61Z"/></clipPath><clipPath id="clip-path-5" transform="translate(0 0.98)"><path class="cls-1" d="M49.08,16.79c.88-1.71-.73-3.62-.73-3.62S45.87,13,45,14.69s.19,4.67.19,4.67S48.21,18.5,49.08,16.79Z"/></clipPath></defs><g id="Layer_2" data-name="Layer 2"><g id="Layer_1-2" data-name="Layer 1"><line class="cls-2" x1="29.94" y1="9.66" x2="30.34" y2="10.82"/><polyline class="cls-2" points="15.79 14.75 15.04 12.72 13.56 14.99"/><polyline class="cls-2" points="49.88 14.84 48.7 12.93 48.14 14.58"/><path class="cls-2" d="M23.22,14.71a5.89,5.89,0,0,1-1.52-2.36" transform="translate(0 0.98)"/><g class="cls-3"><path class="cls-4" d="M13.9,20.74c2.46-2.94.19-7.36.19-7.36S9.34,11.9,6.88,14.83,5.16,24,5.16,24,11.43,23.67,13.9,20.74Z" transform="translate(0 0.98)"/><line class="cls-5" x1="15.07" y1="13.2" x2="3.47" y2="26.99"/><line class="cls-5" x1="2.6" y1="20.28" x2="9.83" y2="19.66"/><line class="cls-5" x1="13.18" y1="24.91" x2="11.66" y2="17.06"/></g><g class="cls-6"><path class="cls-4" d="M20.54,16.36c-1-2.9-5-3.18-5-3.18s-3,2.64-2,5.54,5.56,5,5.56,5S21.52,19.25,20.54,16.36Z" transform="translate(0 0.98)"/><line class="cls-7" x1="15.19" y1="13.01" x2="19.83" y2="26.65"/><line class="cls-7" x1="14.88" y1="24.47" x2="17.45" y2="19.26"/><line class="cls-7" x1="22.43" y1="19.15" x2="16.43" y2="16.94"/></g><g class="cls-8"><path class="cls-4" d="M26.13,6.39C26.9,8.67,30,8.91,30,8.91s2.35-2.07,1.58-4.35S27.25.63,27.25.63,25.37,4.1,26.13,6.39Z" transform="translate(0 0.98)"/><line class="cls-9" x1="30.32" y1="10.79" x2="26.72" y2="0.05"/><line class="cls-9" x1="30.61" y1="1.78" x2="28.57" y2="5.87"/><line class="cls-9" x1="24.65" y1="5.93" x2="29.36" y2="7.7"/></g><path class="cls-4" d="M35.88,9.86a1.49,1.49,0,0,0,1.38.08,1.47,1.47,0,0,0-.65-1.22,3.49,3.49,0,0,0-1.8-.34A3.53,3.53,0,0,0,35.88,9.86Z" transform="translate(0 0.98)"/><path class="cls-4" d="M21.11,13.45a1.35,1.35,0,0,0,.33-1.19,1.35,1.35,0,0,0-1.17.38,3.21,3.21,0,0,0-.64,1.51A3.26,3.26,0,0,0,21.11,13.45Z" transform="translate(0 0.98)"/><g class="cls-10"><path class="cls-4" d="M56.62,15.61c-2.15-3.17-7-2.19-7-2.19s-2.7,4.18-.55,7.35,8.36,4.12,8.36,4.12S58.78,18.78,56.62,15.61Z" transform="translate(0 0.98)"/><line class="cls-5" x1="48.74" y1="13.16" x2="58.87" y2="28.05"/><line class="cls-5" x1="52.18" y1="27.08" x2="53.54" y2="19.94"/><line class="cls-5" x1="59.51" y1="18.15" x2="51.54" y2="17.48"/></g><line class="cls-11" y1="11.99" x2="76.28" y2="11.99"/><g class="cls-12"><path class="cls-4" d="M49.08,16.79c.88-1.71-.73-3.62-.73-3.62S45.87,13,45,14.69s.19,4.67.19,4.67S48.21,18.5,49.08,16.79Z" transform="translate(0 0.98)"/><line class="cls-13" x1="48.7" y1="13.48" x2="44.58" y2="21.51"/><line class="cls-13" x1="43.4" y1="18.34" x2="46.87" y2="17.22"/><line class="cls-13" x1="49.09" y1="19.41" x2="47.47" y2="15.75"/></g><path class="cls-2" d="M36.51,5a5,5,0,0,0,.6,4.27A10.48,10.48,0,0,1,40.9,6.06" transform="translate(0 0.98)"/><circle class="cls-14" cx="37.03" cy="3.73" r="2.75"/><circle class="cls-14" cx="41.53" cy="6.73" r="1.75"/><circle class="cls-14" cx="24.03" cy="16.73" r="1.75"/></g></g></svg>